<?xml version="1.0" encoding="UTF-8" standalone="no"?>
<!DOCTYPE svg PUBLIC "-//W3C//DTD SVG 1.1//EN" "http://www.w3.org/Graphics/SVG/1.1/DTD/svg11.dtd">
<svg version="1.1" xmlns="http://www.w3.org/2000/svg" xmlns:xlink="http://www.w3.org/1999/xlink" preserveAspectRatio="xMidYMid meet" viewBox="249.98042621875464 340.72179876796395 36.42229059074958 37.054881903676744" width="32.42" height="33.05"><defs><path d="M253.3 366.97C253.14 366.72 252.37 365.43 250.98 363.12C253.35 364.37 254.67 365.07 254.94 365.21C260.49 368.17 267.37 366.7 271.26 361.74C275.14 356.79 274.87 349.84 270.74 345.07C270.54 344.84 269.55 343.73 267.77 341.72C270.34 342.52 271.78 342.97 272.06 343.06C273.91 343.62 275.73 344.54 277.23 345.71C284.23 351.2 285.46 361.45 279.97 368.45C274.35 375.61 264.11 376.85 257.1 371.36C255.53 370.12 254.28 368.64 253.3 366.97ZM258.57 369.33C264.55 374.02 273.11 372.99 277.8 367.01C282.49 361.03 281.46 352.46 275.48 347.77C275.32 347.65 275.17 347.52 275.01 347.4C277.34 352.53 276.72 358.66 273.08 363.3C269.5 367.87 263.7 369.92 258.1 368.96C258.25 369.08 258.41 369.2 258.57 369.33Z" id="b1ceAZ3LsM"></path></defs><g><g><use xlink:href="#b1ceAZ3LsM" opacity="1" fill="#50bc93" fill-opacity="1"></use><g><use xlink:href="#b1ceAZ3LsM" opacity="1" fill-opacity="0" stroke="#000000" stroke-width="1" stroke-opacity="0"></use></g></g></g></svg>