<svg xmlns="http://www.w3.org/2000/svg" viewBox="0 0 50 50" width="50" height="50">
	<style>
		tspan { white-space:pre }
		.shp0 { fill: #444444 } 
	</style>
	<g id="Layer">
		<path id="Layer" fill-rule="evenodd" class="shp0" d="M334.5 287.6C334.5 289.5 333 291.1 331 291.1C329.1 291.1 327.5 289.6 327.5 287.6C327.5 285.7 329 284.1 331 284.1C332.9 284.1 334.5 285.7 334.5 287.6ZM332 287.6C332 287.1 331.6 286.6 331 286.6C330.5 286.6 330 287 330 287.6C330 288.1 330.4 288.6 331 288.6C331.5 288.6 332 288.2 332 287.6Z" />
		<path id="Layer" class="shp0" d="M357 289L340.6 289C339.9 289 339.4 289.6 339.4 290.2L339.4 314.8C339.4 315.5 340 316 340.6 316C341.3 316 341.8 315.4 341.8 314.8L341.8 303.7L351 303.7C351.7 303.7 352.2 303.1 352.2 302.5C352.2 301.8 351.6 301.3 351 301.3L341.8 301.3L341.8 291.6L357 291.6C357.7 291.6 358.2 291 358.2 290.4C358.3 289.6 357.7 289 357 289Z" />
	</g>
	<g id="Layer">
		<path id="Layer" class="shp0" d="M356.7 172.9C354.6 175 351.9 176.1 348.9 176.1C342.8 176.1 337.9 171.2 337.9 165.1C337.9 159 342.8 154.1 348.9 154.1C351.8 154.1 354.6 155.2 356.7 157.3C357.2 157.8 358 157.8 358.5 157.3C359 156.8 359 156 358.5 155.5C356 152.9 352.6 151.5 349 151.5C341.6 151.5 335.5 157.6 335.5 165C335.5 172.4 341.6 178.5 349 178.5C352.6 178.5 356 177.1 358.5 174.5C359 174 359 173.2 358.5 172.7C358 172.4 357.2 172.4 356.7 172.9Z" />
		<path id="Layer" fill-rule="evenodd" class="shp0" d="M333.8 150.4C333.8 152.3 332.3 153.9 330.3 153.9C328.4 153.9 326.8 152.4 326.8 150.4C326.8 148.5 328.3 146.9 330.3 146.9C332.3 146.9 333.9 148.5 333.8 150.4ZM331.3 150.5C331.3 150 330.9 149.5 330.3 149.5C329.8 149.5 329.3 149.9 329.3 150.5C329.3 151 329.7 151.5 330.3 151.5C330.9 151.5 331.4 151 331.3 150.5Z" />
	</g>
	<g id="Layer">
		<path id="Layer" class="shp0" d="M338.4 24.3C337.7 24.3 337.2 24.9 337.2 25.5C337.2 26.2 337.8 26.7 338.4 26.7L357.3 26.7C358 26.7 358.5 26.1 358.5 25.5C358.5 24.8 357.9 24.3 357.3 24.3L338.4 24.3Z" />
		<path id="Layer" class="shp0" d="M367.6 24.3L362.8 24.3C362.1 24.3 361.6 24.9 361.6 25.5C361.6 26.2 362.2 26.7 362.8 26.7L367.6 26.7C368.3 26.7 368.8 26.1 368.8 25.5C368.8 24.8 368.3 24.3 367.6 24.3Z" />
		<path id="Layer" class="shp0" d="M354.2 19.6C354.2 20.3 354.8 20.8 355.4 20.8L360.2 20.8C360.9 20.8 361.4 20.2 361.4 19.6C361.4 18.9 360.8 18.4 360.2 18.4L355.4 18.4C354.7 18.4 354.2 19 354.2 19.6Z" />
		<path id="Layer" class="shp0" d="M349.8 15.3L354.6 15.3C355.3 15.3 355.8 14.7 355.8 14.1C355.8 13.4 355.2 12.9 354.6 12.9L349.8 12.9C349.1 12.9 348.6 13.5 348.6 14.1C348.5 14.7 349.1 15.3 349.8 15.3Z" />
		<path id="Layer" class="shp0" d="M363.3 30L338 30L338 30L337.9 30C334.8 30 332 31.5 330.2 33.9C327.6 37.4 328.4 42.4 331.9 44.9C334.8 47 338.9 46.4 341.1 43.4C342.9 40.9 342.3 37.5 339.9 35.7C337.8 34.2 334.9 34.7 333.4 36.7C332.1 38.5 332.5 41 334.3 42.2C335 42.7 335.7 42.9 336.5 42.8C337.2 42.8 337.7 42.2 337.7 41.5C337.7 40.8 337.1 40.3 336.4 40.3C336.3 40.3 336 40.3 335.8 40.1C335.1 39.6 335 38.7 335.5 38C336.2 37 337.5 36.8 338.5 37.5C339.8 38.5 340.1 40.4 339.2 41.7C337.9 43.5 335.3 43.9 333.5 42.6C331.1 40.9 330.6 37.5 332.3 35.1C333.6 33.3 335.8 32.2 338.1 32.2L338.1 32.2L338.1 32.2L363.4 32.2C364.1 32.2 364.6 31.6 364.6 31C364.6 30.6 364 30 363.3 30Z" />
		<path id="Layer" class="shp0" d="M349.6 20.9C350.3 20.9 350.8 20.3 350.8 19.7C350.8 19 350.2 18.5 349.6 18.5L328.2 18.5L328.2 18.5L328.1 18.5C325.8 18.5 323.7 17.4 322.4 15.6C320.7 13.2 321.2 9.8 323.6 8.1C324.5 7.5 325.6 7.2 326.6 7.4C327.7 7.6 328.6 8.1 329.2 9C330.2 10.3 329.9 12.2 328.5 13.2C327.5 13.9 326.2 13.7 325.5 12.7C325 12 325.2 11.1 325.8 10.6L325.8 10.6C325.9 10.5 326 10.5 326.1 10.4C326.8 10.2 327.2 9.6 327 8.9C326.9 8.3 326.4 7.9 325.8 7.9C325.7 7.9 325.6 7.9 325.5 7.9C325 8 324.6 8.2 324.2 8.5L324.2 8.5C322.4 9.8 322 12.3 323.3 14C324.8 16.1 327.7 16.5 329.8 15C332.3 13.2 332.8 9.8 331 7.3C330 5.9 328.4 5 326.7 4.7C326.4 4.6 326 4.6 325.7 4.6C324.3 4.6 323 5 321.9 5.9C318.4 8.5 317.6 13.4 320.2 16.9C322 19.4 324.9 20.8 327.9 20.8L328 20.8L328 20.8L349.6 20.8L349.6 20.9Z" />
	</g>
	<g id="Layer">
		<path id="Layer" class="shp0" d="M346.2 -100.8L338.2 -100.8C337.5 -100.8 337 -100.2 337 -99.6C337 -99 337.6 -98.4 338.2 -98.4L346.2 -98.4C346.9 -98.4 347.4 -99 347.4 -99.6C347.4 -100.2 346.9 -100.8 346.2 -100.8Z" />
		<path id="Layer" class="shp0" d="M344 -95.9L338.2 -95.9C337.5 -95.9 337 -95.3 337 -94.7C337 -94 337.6 -93.5 338.2 -93.5L344 -93.5C344.7 -93.5 345.2 -94.1 345.2 -94.7C345.2 -95.3 344.7 -95.9 344 -95.9Z" />
		<path id="Layer" class="shp0" d="M344 -90.9L338.2 -90.9C337.5 -90.9 337 -90.3 337 -89.7C337 -89.1 337.6 -88.5 338.2 -88.5L344 -88.5C344.7 -88.5 345.2 -89.1 345.2 -89.7C345.2 -90.3 344.7 -90.9 344 -90.9Z" />
		<path id="Layer" class="shp0" d="M350.9 -105.7L340.6 -105.7C339.9 -105.7 339.4 -105.1 339.4 -104.5C339.4 -103.8 340 -103.3 340.6 -103.3L350.9 -103.3C351.6 -103.3 352.1 -103.9 352.1 -104.5C352.2 -105.2 351.6 -105.7 350.9 -105.7Z" />
		<path id="Layer" class="shp0" d="M353.5 -110.6L338.2 -110.6C337.5 -110.6 337 -110 337 -109.4C337 -108.7 337.6 -108.2 338.2 -108.2L353.5 -108.2C354.2 -108.2 354.7 -108.8 354.7 -109.4C354.7 -110.1 354.1 -110.6 353.5 -110.6Z" />
		<path id="Layer" class="shp0" d="M356.9 -115.6L340 -115.6C339.3 -115.6 338.8 -115 338.8 -114.4C338.8 -113.8 339.4 -113.2 340 -113.2L356.9 -113.2C357.6 -113.2 358.1 -113.8 358.1 -114.4C358.1 -115 357.6 -115.6 356.9 -115.6Z" />
		<path id="Layer" class="shp0" d="M338.2 -118L354.1 -118C354.8 -118 355.3 -118.6 355.3 -119.2C355.3 -119.9 354.7 -120.4 354.1 -120.4L338.2 -120.4C337.5 -120.4 337 -119.8 337 -119.2C336.9 -118.6 337.5 -118 338.2 -118Z" />
		<path id="Layer" class="shp0" d="M363.6 -125.4L340 -125.4C339.3 -125.4 338.8 -124.8 338.8 -124.2C338.8 -123.6 339.4 -123 340 -123L363.7 -123C364.4 -123 364.9 -123.6 364.9 -124.2C364.9 -124.8 364.3 -125.4 363.6 -125.4Z" />
		<path id="Layer" class="shp0" d="M358.1 -129.1C358.1 -129.8 357.5 -130.3 356.9 -130.3L331.1 -130.3C330.4 -130.3 329.9 -129.7 329.9 -129.1C329.9 -128.4 330.5 -127.9 331.1 -127.9L356.9 -127.9C357.6 -127.9 358.1 -128.4 358.1 -129.1Z" />
		<path id="Layer" class="shp0" d="M353 -134C353 -134.7 352.4 -135.2 351.8 -135.2L324 -135.2C323.3 -135.2 322.8 -134.6 322.8 -134C322.8 -133.3 323.4 -132.8 324 -132.8L351.7 -132.8C352.4 -132.8 353 -133.3 353 -134Z" />
	</g>
	<path id="Layer" fill-rule="evenodd" class="shp0" d="M359.2 -234.2L328.6 -234.2C324 -234.2 320.2 -237.9 320.2 -242.6C320.2 -247.1 323.8 -250.8 328.2 -250.9C328.1 -251.5 328 -252.1 328 -252.8C328 -259.1 333.1 -264.3 339.5 -264.3C343.3 -264.3 346.8 -262.4 348.9 -259.4C350.2 -260.1 351.6 -260.5 353.1 -260.5C358.1 -260.5 362.1 -256.5 362.1 -251.5C362.1 -251.2 362.1 -250.8 362 -250.5C365.2 -249.3 367.4 -246.2 367.4 -242.7C367.5 -237.9 363.8 -234.2 359.2 -234.2ZM328.5 -248.4C325.3 -248.4 322.6 -245.8 322.6 -242.5C322.6 -239.2 325.2 -236.6 328.5 -236.6L359.1 -236.6C362.3 -236.6 365 -239.2 365 -242.5C365 -245.2 363.1 -247.6 360.4 -248.2L359.1 -248.5L359.4 -249.8C359.5 -250.3 359.6 -250.9 359.6 -251.4C359.6 -255 356.7 -257.9 353.1 -257.9C351.7 -257.9 350.3 -257.4 349.2 -256.6L348 -255.7L347.3 -257C345.7 -259.9 342.7 -261.8 339.4 -261.8C334.5 -261.8 330.4 -257.8 330.4 -252.8C330.4 -251.9 330.5 -251 330.8 -250.1L331.3 -248.5L328.5 -248.5L328.5 -248.4Z" />
	<g id="Layer">
		<path id="Layer" fill-rule="evenodd" class="shp0" d="M257.6 305.8L255.1 305.8L254.9 304.8C254.6 303.2 253.2 302 251.6 302C250 302 248.6 303.2 248.3 304.8L248.1 305.8L245.9 305.8L245.7 304.8C245.4 303.2 244 302 242.4 302C240.8 302 239.4 303.2 239.1 304.8L239 305.1L239 319.4C239 322 236.9 324.1 234.3 324.1C231.7 324.1 229.6 322 229.6 319.4L229.6 317.4C229.6 316.8 230.1 316.2 230.8 316.2C231.4 316.2 232 316.7 232 317.4L232 319.4C232 320.6 233 321.6 234.2 321.6C235.4 321.6 236.4 320.6 236.4 319.4L236.4 305.1L236.3 304.8C236 303.2 234.6 302 233 302C231.4 302 230 303.2 229.7 304.8L229.5 305.8L227.3 305.8L227.1 304.8C226.8 303.2 225.4 302 223.8 302C222.2 302 220.8 303.2 220.5 304.8L220.3 305.8L217.8 305.8L217.9 304.5C218.6 293.1 226.3 284.8 236.4 284.2L236.4 283.1C236.4 282.5 236.9 281.9 237.6 281.9C238.2 281.9 238.8 282.4 238.8 283.1L238.8 284.2C248.9 284.9 256.6 293.2 257.3 304.5L257.6 305.8ZM254.1 300.2C252 292.2 245.5 286.7 237.6 286.7C229.7 286.7 223.2 292.1 221.1 300.2C221.9 299.7 222.8 299.5 223.8 299.5C225.7 299.5 227.3 300.3 228.4 301.7C229.5 300.4 231.2 299.5 233 299.5C234.9 299.5 236.5 300.3 237.6 301.7C238.7 300.4 240.4 299.5 242.2 299.5C244.1 299.5 245.7 300.3 246.8 301.7C247.9 300.4 249.6 299.5 251.4 299.5C252.4 299.5 253.3 299.8 254.1 300.2Z" />
		<path id="Layer" class="shp0" d="M220.8 283.1C221.5 283.1 222 282.5 222 281.9L222 275.5C222 274.8 221.4 274.3 220.8 274.3C220.2 274.3 219.6 274.9 219.6 275.5L219.6 281.9C219.5 282.5 220.1 283.1 220.8 283.1Z" />
		<path id="Layer" class="shp0" d="M226.4 279.9C227.1 279.9 227.6 279.3 227.6 278.7L227.6 275.5C227.6 274.8 227 274.3 226.4 274.3C225.7 274.3 225.2 274.9 225.2 275.5L225.2 278.7C225.1 279.3 225.7 279.9 226.4 279.9Z" />
		<path id="Layer" class="shp0" d="M232 283.1C232.7 283.1 233.2 282.5 233.2 281.9L233.2 275.5C233.2 274.8 232.6 274.3 232 274.3C231.3 274.3 230.8 274.9 230.8 275.5L230.8 281.9C230.7 282.5 231.3 283.1 232 283.1Z" />
		<path id="Layer" class="shp0" d="M237.6 279.9C238.3 279.9 238.8 279.3 238.8 278.7L238.8 275.5C238.8 274.8 238.2 274.3 237.6 274.3C236.9 274.3 236.4 274.9 236.4 275.5L236.4 278.7C236.3 279.3 236.9 279.9 237.6 279.9Z" />
		<path id="Layer" class="shp0" d="M243.2 283.1C243.9 283.1 244.4 282.5 244.4 281.9L244.4 275.5C244.4 274.8 243.8 274.3 243.2 274.3C242.6 274.3 242 274.9 242 275.5L242 281.9C241.9 282.5 242.5 283.1 243.2 283.1Z" />
		<path id="Layer" class="shp0" d="M248.8 279.9C249.5 279.9 250 279.3 250 278.7L250 275.5C250 274.8 249.4 274.3 248.8 274.3C248.1 274.3 247.6 274.9 247.6 275.5L247.6 278.7C247.6 279.3 248.1 279.9 248.8 279.9Z" />
		<path id="Layer" class="shp0" d="M254.4 283.1C255.1 283.1 255.6 282.5 255.6 281.9L255.6 275.5C255.6 274.8 255 274.3 254.4 274.3C253.7 274.3 253.2 274.9 253.2 275.5L253.2 281.9C253.2 282.5 253.7 283.1 254.4 283.1Z" />
		<path id="Layer" class="shp0" d="M220.8 287.3C221.1 287.3 221.5 287.2 221.7 286.9C221.9 286.7 222.1 286.3 222.1 286C222.1 285.7 222 285.3 221.7 285.1C221.2 284.6 220.4 284.6 219.9 285.1C219.7 285.3 219.5 285.7 219.5 286C219.5 286.3 219.6 286.6 219.9 286.9C220.1 287.2 220.4 287.3 220.8 287.3Z" />
		<path id="Layer" class="shp0" d="M226.4 284.1C226.7 284.1 227.1 284 227.3 283.7C227.5 283.5 227.7 283.1 227.7 282.8C227.7 282.5 227.6 282.1 227.3 281.9C226.8 281.4 226 281.4 225.5 281.9C225.3 282.1 225.1 282.5 225.1 282.8C225.1 283.1 225.2 283.4 225.5 283.7C225.7 283.9 226 284.1 226.4 284.1Z" />
		<path id="Layer" class="shp0" d="M248.8 284.1C249.1 284.1 249.5 284 249.7 283.7C249.9 283.5 250.1 283.1 250.1 282.8C250.1 282.5 250 282.1 249.7 281.9C249.2 281.4 248.4 281.4 247.9 281.9C247.7 282.1 247.5 282.5 247.5 282.8C247.5 283.1 247.6 283.4 247.9 283.7C248.2 283.9 248.5 284.1 248.8 284.1Z" />
		<path id="Layer" class="shp0" d="M254.4 287.3C254.7 287.3 255.1 287.2 255.3 286.9C255.5 286.7 255.7 286.3 255.7 286C255.7 285.7 255.6 285.3 255.3 285.1C254.8 284.6 254 284.6 253.5 285.1C253.3 285.3 253.1 285.7 253.1 286C253.1 286.3 253.2 286.6 253.5 286.9C253.8 287.2 254.1 287.3 254.4 287.3Z" />
	</g>
	<g id="Layer">
		<path id="Layer" fill-rule="evenodd" class="shp0" d="M261.4 163.1C261.4 167.8 257.6 171.5 253 171.5L222.4 171.5C217.7 171.5 214 167.7 214 163.1C214 158.7 217.6 155 222 154.8C221.9 154.2 221.8 153.5 221.8 152.9C221.8 146.5 227 141.4 233.3 141.4C237.1 141.4 240.6 143.2 242.7 146.3C244 145.6 245.4 145.2 246.9 145.2C251.9 145.2 255.9 149.2 255.9 154.2C255.9 154.5 255.8 154.9 255.8 155.2C259 156.4 261.3 159.6 261.4 163.1ZM258.9 163.1C258.9 160.4 257 158 254.3 157.4L253 157.1L253.3 155.8C253.4 155.2 253.5 154.7 253.5 154.2C253.5 150.6 250.6 147.7 247 147.7C245.6 147.7 244.2 148.1 243.1 149L241.9 149.9L241.2 148.6C239.7 145.6 236.6 143.8 233.3 143.8C228.3 143.8 224.3 147.9 224.3 152.8C224.3 153.7 224.4 154.6 224.7 155.5L225.2 157.1L222.3 157.1C219 157.1 216.4 159.7 216.4 163C216.4 166.3 219.1 168.9 222.3 168.9L252.9 168.9C256.1 168.9 258.8 166.3 258.9 163.1Z" />
		<path id="Layer" class="shp0" d="M231.3 177.1C230.6 177.1 230.1 177.7 230.1 178.4C230.1 179.1 230.7 179.6 231.3 179.6C231.9 179.6 232.5 179 232.5 178.4L232.5 178.3C232.5 177.6 231.9 177.1 231.3 177.1Z" />
		<path id="Layer" class="shp0" d="M224.9 174C224.2 174 223.7 174.6 223.7 175.3C223.7 176 224.3 176.5 224.9 176.5C225.6 176.5 226.1 175.9 226.1 175.3L226.1 175.2C226.2 174.5 225.6 174 224.9 174Z" />
		<path id="Layer" class="shp0" d="M224.9 180.2C224.2 180.2 223.7 180.8 223.7 181.5C223.7 182.2 224.3 182.7 224.9 182.7C225.6 182.7 226.1 182.1 226.1 181.5L226.1 181.4C226.2 180.7 225.6 180.2 224.9 180.2Z" />
		<path id="Layer" class="shp0" d="M243.9 177.1C243.2 177.1 242.7 177.7 242.7 178.4C242.7 179.1 243.3 179.6 243.9 179.6C244.5 179.6 245.1 179 245.1 178.4L245.1 178.3C245.2 177.6 244.6 177.1 243.9 177.1Z" />
		<path id="Layer" class="shp0" d="M237.6 174C236.9 174 236.4 174.6 236.4 175.3C236.4 176 237 176.5 237.6 176.5C238.3 176.5 238.8 175.9 238.8 175.3L238.8 175.2C238.8 174.5 238.3 174 237.6 174Z" />
		<path id="Layer" class="shp0" d="M237.6 180.2C236.9 180.2 236.4 180.8 236.4 181.5C236.4 182.2 237 182.7 237.6 182.7C238.3 182.7 238.8 182.1 238.8 181.5L238.8 181.4C238.8 180.7 238.3 180.2 237.6 180.2Z" />
		<path id="Layer" class="shp0" d="M250.3 174C249.6 174 249.1 174.6 249.1 175.3C249.1 176 249.7 176.5 250.3 176.5C250.9 176.5 251.5 175.9 251.5 175.3L251.5 175.2C251.5 174.5 251 174 250.3 174Z" />
		<path id="Layer" class="shp0" d="M250.3 180.2C249.6 180.2 249.1 180.8 249.1 181.5C249.1 182.2 249.7 182.7 250.3 182.7C250.9 182.7 251.5 182.1 251.5 181.5L251.5 181.4C251.5 180.7 251 180.2 250.3 180.2Z" />
	</g>
	<g id="Layer">
		<path id="Layer" class="shp0" d="M224.1 33.5L224.1 33.5C223.4 33.5 222.8 34.1 222.9 34.8L222.9 42.8C222.9 43.5 223.5 44 224.1 44L224.1 44C224.8 44 225.3 43.4 225.3 42.7L225.3 34.7C225.3 34.1 224.7 33.5 224.1 33.5Z" />
		<path id="Layer" class="shp0" d="M235 33.5L235 33.5C234.3 33.5 233.7 34.1 233.8 34.8L233.8 42.8C233.8 43.5 234.4 44 235 44L235 44C235.7 44 236.2 43.4 236.2 42.7L236.2 34.7C236.3 34 235.7 33.5 235 33.5Z" />
		<path id="Layer" class="shp0" d="M240.5 33.4L240.5 33.4C239.8 33.4 239.2 34 239.3 34.7L239.3 46.9C239.3 47.6 239.9 48.1 240.5 48.1L240.5 48.1C241.2 48.1 241.7 47.5 241.7 46.8L241.7 34.6C241.7 34 241.2 33.4 240.5 33.4Z" />
		<path id="Layer" class="shp0" d="M229.5 33.5L229.5 33.5C228.8 33.5 228.2 34.1 228.3 34.8L228.3 47C228.3 47.7 228.9 48.2 229.5 48.2L229.5 48.2C230.2 48.2 230.7 47.6 230.7 46.9L230.7 34.7C230.8 34 230.2 33.5 229.5 33.5Z" />
		<path id="Layer" class="shp0" d="M246 33.4C245.3 33.4 244.8 34 244.8 34.7L244.8 42.7C244.8 43.4 245.4 43.9 246 43.9L246 43.9C246.7 43.9 247.2 43.3 247.2 42.6L247.2 34.6C247.2 34 246.7 33.4 246 33.4Z" />
		<path id="Layer" class="shp0" d="M251.1 33.4L251.1 33.4C250.4 33.4 249.8 34 249.9 34.7L249.9 38.7C249.9 39.4 250.5 39.9 251.1 39.9L251.1 39.9C251.8 39.9 252.3 39.3 252.3 38.6L252.3 34.6C252.4 34 251.8 33.4 251.1 33.4Z" />
		<path id="Layer" fill-rule="evenodd" class="shp0" d="M261.2 23.5C261.1 28.1 257.4 31.8 252.8 31.8L222.2 31.7C220 31.7 217.9 30.8 216.3 29.2C214.8 27.6 213.9 25.5 213.9 23.3C213.9 18.8 217.5 15.2 221.9 15C221.8 14.4 221.8 13.7 221.8 13.1C221.8 6.8 227 1.7 233.3 1.7C237.2 1.7 240.7 3.6 242.8 6.7C244.1 6.1 245.5 5.7 247 5.7C252 5.7 256 9.7 256 14.7C256 15 255.9 15.4 255.9 15.7C259.1 16.9 261.3 20 261.2 23.5ZM252.9 29.4C256.1 29.4 258.8 26.7 258.9 23.8C258.9 21.1 257 18.7 254.3 18.1L253 17.8L253.3 16.5C253.4 15.9 253.5 15.4 253.5 14.9C253.5 11.3 250.6 8.4 247 8.4C245.6 8.4 244.2 8.9 243.1 9.7L241.9 10.6L241.2 9.3C239.7 6.4 236.6 4.5 233.3 4.5C228.3 4.5 224.3 8.5 224.3 13.4C224.3 14.3 224.4 15.2 224.7 16.1L225.2 17.7L222.3 17.7C219 17.7 216.4 20.3 216.4 23.5C216.4 25 217 26.5 218.1 27.6C219.2 28.7 220.6 29.3 222.2 29.3L252.9 29.4Z" />
		<path id="Layer" class="shp0" d="M240.1 16.5L240.1 16.5L237.1 16.5L238.9 13.1C239.2 12.5 239 11.7 238.4 11.4C237.8 11.1 237 11.3 236.7 11.9L234 17.1C233.8 17.5 233.8 18 234 18.3C234.2 18.7 234.6 18.9 235.1 18.9L235.1 18.9L238.1 18.9L236 23C235.7 23.6 235.9 24.4 236.5 24.7C236.7 24.8 236.9 24.8 237.1 24.8C237.6 24.8 238 24.6 238.2 24.1L241.3 18.2C241.5 17.8 241.5 17.3 241.3 17C240.9 16.8 240.5 16.5 240.1 16.5Z" />
	</g>
	<g id="Layer">
		<path id="Layer" fill-rule="evenodd" class="shp0" d="M261.4 -113.7C261.4 -109 257.6 -105.3 253 -105.3L222.4 -105.3C217.7 -105.3 214 -109.1 214 -113.7C214 -118.1 217.6 -121.8 222 -122C221.9 -122.6 221.8 -123.3 221.8 -123.9C221.8 -130.3 227 -135.4 233.3 -135.4C237.1 -135.4 240.6 -133.6 242.7 -130.5C244 -131.2 245.4 -131.6 246.9 -131.6C251.9 -131.6 255.9 -127.6 255.9 -122.6C255.9 -122.3 255.8 -121.9 255.8 -121.6C259 -120.4 261.3 -117.3 261.4 -113.7ZM258.9 -113.8C258.9 -116.5 257 -118.9 254.3 -119.5L253 -119.8L253.3 -121.1C253.4 -121.7 253.5 -122.2 253.5 -122.7C253.5 -126.3 250.6 -129.2 247 -129.2C245.6 -129.2 244.2 -128.8 243.1 -127.9L241.9 -127L241.2 -128.3C239.7 -131.3 236.6 -133.1 233.3 -133.1C228.3 -133.1 224.3 -129 224.3 -124.1C224.3 -123.2 224.4 -122.3 224.7 -121.4L225.2 -119.8L222.3 -119.8C219 -119.8 216.4 -117.2 216.4 -113.9C216.4 -110.6 219.1 -108 222.3 -108L252.9 -108C256.1 -108 258.8 -110.6 258.9 -113.8Z" />
		<path id="Layer" class="shp0" d="M224.1 -103.4C223.4 -103.4 222.9 -102.8 222.9 -102.2L222.9 -94.2C222.9 -93.5 223.5 -93 224.1 -93C224.8 -93 225.3 -93.6 225.3 -94.2L225.3 -102.2C225.4 -102.8 224.8 -103.4 224.1 -103.4Z" />
		<path id="Layer" class="shp0" d="M235.1 -103.4C234.4 -103.4 233.9 -102.8 233.9 -102.2L233.9 -94.2C233.9 -93.5 234.5 -93 235.1 -93C235.8 -93 236.3 -93.6 236.3 -94.2L236.3 -102.2C236.3 -102.8 235.8 -103.4 235.1 -103.4Z" />
		<path id="Layer" class="shp0" d="M240.6 -103.4C239.9 -103.4 239.4 -102.8 239.4 -102.2L239.4 -90C239.4 -89.3 240 -88.8 240.6 -88.8C241.3 -88.8 241.8 -89.4 241.8 -90L241.8 -102.2C241.8 -102.8 241.2 -103.4 240.6 -103.4Z" />
		<path id="Layer" class="shp0" d="M229.6 -103.4C228.9 -103.4 228.4 -102.8 228.4 -102.2L228.4 -90C228.4 -89.3 229 -88.8 229.6 -88.8C230.3 -88.8 230.8 -89.4 230.8 -90L230.8 -102.2C230.8 -102.8 230.3 -103.4 229.6 -103.4Z" />
		<path id="Layer" class="shp0" d="M246 -103.4C245.3 -103.4 244.8 -102.8 244.8 -102.2L244.8 -94.2C244.8 -93.5 245.4 -93 246 -93C246.6 -93 247.2 -93.6 247.2 -94.2L247.2 -102.2C247.3 -102.8 246.7 -103.4 246 -103.4Z" />
		<path id="Layer" class="shp0" d="M251.2 -103.4C250.5 -103.4 250 -102.8 250 -102.2L250 -98.2C250 -97.5 250.6 -97 251.2 -97C251.9 -97 252.4 -97.6 252.4 -98.2L252.4 -102.2C252.4 -102.8 251.9 -103.4 251.2 -103.4Z" />
	</g>
	<g id="Layer">
		<path id="Layer" fill-rule="evenodd" class="shp0" d="M261.4 -249.2C261.4 -244.5 257.6 -240.8 253 -240.8L222.4 -240.8C217.7 -240.8 214 -244.6 214 -249.2C214 -253.6 217.6 -257.3 222 -257.5C221.9 -258.1 221.8 -258.8 221.8 -259.4C221.8 -265.8 227 -270.9 233.3 -270.9C237.1 -270.9 240.6 -269.1 242.7 -266C244 -266.7 245.4 -267.1 246.9 -267.1C251.9 -267.1 255.9 -263.1 255.9 -258.1C255.9 -257.8 255.8 -257.4 255.8 -257.1C259 -255.9 261.3 -252.8 261.4 -249.2ZM258.9 -249.3C258.9 -252 257 -254.4 254.3 -255L253 -255.3L253.3 -256.6C253.4 -257.2 253.5 -257.7 253.5 -258.2C253.5 -261.8 250.6 -264.7 247 -264.7C245.6 -264.7 244.2 -264.3 243.1 -263.4L241.9 -262.5L241.2 -263.8C239.7 -266.8 236.6 -268.6 233.3 -268.6C228.3 -268.6 224.3 -264.5 224.3 -259.6C224.3 -258.7 224.4 -257.8 224.7 -256.9L225.2 -255.3L222.3 -255.3C219 -255.3 216.4 -252.6 216.4 -249.4C216.4 -246.1 219.1 -243.5 222.3 -243.5L252.9 -243.5C256.1 -243.5 258.8 -246.1 258.9 -249.3Z" />
		<path id="Layer" class="shp0" d="M232 -235L229.7 -235L231.1 -237.7C231.4 -238.3 231.2 -239.1 230.6 -239.4C230 -239.7 229.2 -239.5 228.9 -238.9L226.5 -234.4C226.3 -234 226.3 -233.5 226.5 -233.2C226.7 -232.8 227.1 -232.6 227.6 -232.6L229.9 -232.6L228.2 -229.3C227.9 -228.7 228.1 -227.9 228.7 -227.6C228.9 -227.5 229.1 -227.5 229.3 -227.5C229.8 -227.5 230.2 -227.7 230.4 -228.2L233.1 -233.3C233.3 -233.7 233.3 -234.2 233.1 -234.5C232.9 -234.7 232.5 -235 232 -235Z" />
		<path id="Layer" class="shp0" d="M239.8 -235L237.5 -235L238.9 -237.7C239.2 -238.3 239 -239.1 238.4 -239.4C237.8 -239.7 237 -239.5 236.7 -238.9L234.3 -234.4C234.1 -234 234.1 -233.5 234.3 -233.2C234.5 -232.8 234.9 -232.6 235.4 -232.6L237.7 -232.6L236 -229.3C235.7 -228.7 235.9 -227.9 236.5 -227.6C236.7 -227.5 236.9 -227.5 237.1 -227.5C237.6 -227.5 238 -227.7 238.2 -228.2L240.9 -233.3C241.1 -233.7 241.1 -234.2 240.9 -234.5C240.6 -234.7 240.2 -235 239.8 -235Z" />
		<path id="Layer" class="shp0" d="M247.5 -235L245.2 -235L246.6 -237.7C246.9 -238.3 246.7 -239.1 246.1 -239.4C245.5 -239.7 244.7 -239.5 244.4 -238.9L242 -234.4C241.8 -234 241.8 -233.5 242 -233.2C242.2 -232.8 242.6 -232.6 243.1 -232.6L245.4 -232.6L243.7 -229.3C243.4 -228.7 243.6 -227.9 244.2 -227.6C244.4 -227.5 244.6 -227.5 244.8 -227.5C245.3 -227.5 245.7 -227.7 245.9 -228.2L248.6 -233.3C248.8 -233.7 248.8 -234.2 248.6 -234.5C248.4 -234.7 248 -235 247.5 -235Z" />
	</g>
	<path id="Layer" class="shp0" d="M146.5 309.2L141.2 306.2C141.5 305.8 141.9 305.5 142.4 305.5C143.2 305.4 143.9 305.9 144 305.9C144.5 306.3 145.3 306.3 145.8 305.8C146.2 305.3 146.2 304.5 145.7 304C145.5 303.9 144.1 302.7 142.1 303C141 303.2 140 303.8 139.1 304.9L137.1 303.7L137.3 303.4C137.6 302.8 137.4 302 136.8 301.7C136.2 301.4 135.4 301.6 135.1 302.2L134.9 302.5L130.9 300.2L134.9 297.9L135.1 298.2C135.3 298.6 135.8 298.8 136.2 298.8C136.4 298.8 136.6 298.7 136.8 298.6C137.4 298.3 137.6 297.5 137.3 296.9L137.1 296.6L139.1 295.4C140 296.5 140.9 297.1 142.1 297.3C142.3 297.3 142.6 297.4 142.8 297.4C144.4 297.4 145.5 296.5 145.7 296.3C146.2 295.9 146.3 295.1 145.8 294.5C145.4 294 144.6 293.9 144 294.4C144 294.4 143.3 295 142.5 294.8C142 294.7 141.6 294.4 141.3 294.1L146.6 291.1C147.2 290.8 147.4 290 147.1 289.4C146.8 288.8 146 288.6 145.4 288.9L140.1 291.9C140 291.4 139.9 290.9 140 290.5C140.3 289.7 141.1 289.4 141.2 289.4C141.8 289.2 142.2 288.5 141.9 287.8C141.7 287.1 141 286.8 140.3 287C140.1 287.1 138.3 287.7 137.6 289.6C137.2 290.7 137.3 291.9 137.8 293.1L135.8 294.3L135.6 294C135.3 293.4 134.5 293.2 133.9 293.5C133.3 293.8 133.1 294.6 133.4 295.2L133.6 295.5L129.6 297.8L129.6 293.1L130 293.1C130.7 293.1 131.2 292.5 131.2 291.9C131.2 291.2 130.6 290.7 130 290.7L129.6 290.7L129.6 288.4C131 288.2 132 287.7 132.8 286.8C134.1 285.3 133.8 283.4 133.7 283.2C133.6 282.5 132.9 282.1 132.3 282.2C131.6 282.3 131.2 283 131.3 283.6C131.3 283.6 131.4 284.5 130.9 285.2C130.6 285.5 130.1 285.7 129.7 285.8L129.7 279.7C129.7 279 129.1 278.5 128.4 278.5C127.7 278.5 127.2 279.1 127.2 279.7L127.2 285.8C126.7 285.7 126.3 285.5 126 285.2C125.5 284.6 125.6 283.7 125.6 283.6C125.7 282.9 125.3 282.3 124.6 282.2C123.9 282.1 123.3 282.5 123.1 283.2C123.1 283.4 122.8 285.3 124 286.8C124.7 287.7 125.8 288.2 127.2 288.4L127.2 290.7L126.8 290.7C126.1 290.7 125.6 291.3 125.6 291.9C125.6 292.6 126.2 293.1 126.8 293.1L127.2 293.1L127.2 297.8L123.2 295.5L123.4 295.2C123.7 294.6 123.5 293.8 122.9 293.5C122.3 293.2 121.5 293.4 121.2 294L121 294.3L119 293.1C119.5 291.8 119.6 290.6 119.2 289.6C118.5 287.7 116.7 287.1 116.5 287C115.9 286.8 115.1 287.1 114.9 287.8C114.7 288.5 115 289.2 115.7 289.4C115.7 289.4 116.6 289.7 116.8 290.5C117 290.9 116.9 291.4 116.8 291.9L111.5 288.9C110.9 288.6 110.1 288.8 109.8 289.4C109.5 290 109.7 290.8 110.3 291.1L115.6 294.1C115.3 294.5 114.9 294.8 114.4 294.8C113.6 295 112.9 294.4 112.8 294.4C112.3 294 111.5 294 111 294.5C110.6 295 110.6 295.8 111.1 296.3C111.2 296.4 112.4 297.4 114 297.4C114.2 297.4 114.5 297.4 114.7 297.3C115.8 297.1 116.8 296.5 117.7 295.4L119.7 296.6L119.5 296.9C119.2 297.5 119.4 298.3 120 298.6C120.2 298.7 120.4 298.8 120.6 298.8C121 298.8 121.5 298.6 121.7 298.2L121.9 297.9L125.9 300.2L121.9 302.5L121.7 302.2C121.4 301.6 120.6 301.4 120 301.7C119.4 302 119.2 302.8 119.5 303.4L119.7 303.7L117.7 304.9C116.8 303.8 115.9 303.2 114.7 303C112.8 302.7 111.3 303.9 111.1 304C110.6 304.4 110.5 305.2 111 305.8C111.4 306.3 112.2 306.4 112.8 305.9C112.8 305.9 113.5 305.3 114.3 305.5C114.8 305.6 115.2 305.9 115.5 306.2L110.2 309.2C109.6 309.5 109.4 310.3 109.7 310.9C109.9 311.3 110.4 311.5 110.8 311.5C111 311.5 111.2 311.4 111.4 311.3L116.7 308.3C116.8 308.8 116.9 309.3 116.8 309.7C116.5 310.5 115.7 310.8 115.6 310.8C115 311 114.6 311.7 114.9 312.4C115.1 312.9 115.6 313.2 116.1 313.2C116.2 313.2 116.4 313.2 116.5 313.1C116.7 313 118.5 312.4 119.2 310.5C119.6 309.4 119.5 308.2 119 307L121 305.8L121.2 306.1C121.4 306.5 121.9 306.7 122.3 306.7C122.5 306.7 122.7 306.6 122.9 306.5C123.5 306.2 123.7 305.4 123.4 304.8L123.2 304.5L127.2 302.2L127.2 306.9L126.8 306.9C126.1 306.9 125.6 307.5 125.6 308.1C125.6 308.8 126.2 309.3 126.8 309.3L127.2 309.3L127.2 311.6C125.8 311.8 124.8 312.3 124 313.2C122.7 314.7 123 316.6 123.1 316.8C123.2 317.4 123.7 317.8 124.3 317.8C124.4 317.8 124.4 317.8 124.5 317.8C125.2 317.7 125.6 317 125.5 316.4C125.5 316.4 125.4 315.5 125.9 314.8C126.2 314.5 126.7 314.3 127.1 314.2L127.1 320.3C127.1 321 127.7 321.5 128.3 321.5C129 321.5 129.6 320.9 129.6 320.3L129.6 314.2C130.1 314.3 130.5 314.5 130.8 314.8C131.3 315.4 131.2 316.3 131.2 316.4C131.1 317.1 131.5 317.7 132.2 317.8C132.3 317.8 132.4 317.8 132.4 317.8C133 317.8 133.5 317.4 133.6 316.8C133.6 316.6 133.9 314.7 132.7 313.2C132 312.3 130.9 311.8 129.5 311.6L129.5 309.3L129.9 309.3C130.6 309.3 131.1 308.7 131.1 308.1C131.1 307.4 130.5 306.9 129.9 306.9L129.5 306.9L129.5 302.2L133.5 304.5L133.3 304.8C133 305.4 133.2 306.2 133.8 306.5C134 306.6 134.2 306.7 134.4 306.7C134.8 306.7 135.3 306.5 135.5 306.1L135.7 305.8L137.7 307C137.2 308.3 137.1 309.5 137.5 310.5C138.2 312.4 140 313 140.2 313.1C140.3 313.1 140.5 313.2 140.6 313.2C141.1 313.2 141.6 312.9 141.8 312.4C142 311.7 141.7 311 141 310.8C141 310.8 140.1 310.5 139.9 309.7C139.7 309.3 139.8 308.8 139.9 308.3L145.2 311.3C145.4 311.4 145.6 311.5 145.8 311.5C146.2 311.5 146.7 311.3 146.9 310.9C147.3 310.3 147.1 309.5 146.5 309.2Z" />
	<g id="Layer">
		<path id="Layer" fill-rule="evenodd" class="shp0" d="M149.7 159.1C150.8 160.5 151.5 162.3 151.5 164.2C151.5 168.9 147.7 172.6 143.1 172.6L112.5 172.6C107.8 172.6 104.1 168.8 104.1 164.2C104.1 159.8 107.7 156.1 112.1 155.9C112 155.3 111.9 154.6 111.9 154C111.9 147.6 117.1 142.5 123.4 142.5C127.2 142.5 130.7 144.3 132.8 147.4C134.1 146.7 135.5 146.3 137 146.3C139 146.3 140.9 146.9 142.4 148.1C143.2 146.1 143.2 143.7 142.3 141.7L141.3 139.4L143.7 139.9C145.8 140.4 147.8 141.5 149.3 143C151.4 145.1 152.6 148 152.6 151C152.6 153.9 151.5 156.7 149.7 159.1ZM148.9 164C148.9 162.7 148.5 161.5 147.7 160.5C147.2 159.8 146.5 159.2 145.7 158.8C145.2 158.6 144.8 158.4 144.3 158.3L143 158L143.3 156.7C143.4 156.1 143.5 155.6 143.5 155.1C143.5 154 143.2 152.9 142.7 152C142.3 151.3 141.8 150.6 141.1 150.1C140 149.1 138.5 148.6 137 148.6C135.6 148.6 134.2 149 133.1 149.9L131.9 150.8L131.2 149.5C129.7 146.5 126.6 144.7 123.3 144.7C118.3 144.7 114.3 148.8 114.3 153.7C114.3 154.6 114.4 155.5 114.7 156.4L115.2 158L112.3 158C109 158 106.4 160.7 106.4 163.9C106.4 167.2 109.1 169.8 112.3 169.8L142.9 169.8C146.1 169.8 148.8 167.2 148.9 164ZM150.3 151C150.3 148.6 149.4 146.4 147.7 144.7C147 144.1 146.3 143.5 145.5 143.1C145.9 145.4 145.4 147.8 144.3 149.9C145.4 151.3 146 153.1 146 155.1C146 155.4 145.9 155.8 145.9 156.1C146.5 156.4 147.1 156.7 147.7 157.1C149.3 155.4 150.1 153.3 150.3 151Z" />
		<path id="Layer" class="shp0" d="M135 174.3C134.3 174.3 133.8 174.9 133.8 175.5L133.8 177.5C133.8 178.2 134.4 178.7 135 178.7C135.7 178.7 136.2 178.1 136.2 177.5L136.2 175.5C136.2 174.9 135.7 174.3 135 174.3Z" />
		<path id="Layer" class="shp0" d="M135 180.1C134.3 180.1 133.8 180.7 133.8 181.4C133.8 182.1 134.4 182.6 135 182.6C135.7 182.6 136.2 182 136.2 181.4L136.2 181.3C136.2 180.6 135.7 180.1 135 180.1Z" />
		<path id="Layer" class="shp0" d="M135 183.7C134.3 183.7 133.8 184.3 133.8 185C133.8 185.7 134.4 186.2 135 186.2C135.7 186.2 136.2 185.6 136.2 185L136.2 184.9C136.2 184.2 135.7 183.7 135 183.7Z" />
		<path id="Layer" class="shp0" d="M113.9 180.1C113.2 180.1 112.7 180.7 112.7 181.4C112.7 182.1 113.3 182.6 113.9 182.6C114.6 182.6 115.1 182 115.1 181.4L115.1 181.3C115.1 180.6 114.6 180.1 113.9 180.1Z" />
		<path id="Layer" class="shp0" d="M124 174.3C123.3 174.3 122.8 174.9 122.8 175.5L122.8 177.5C122.8 178.2 123.4 178.7 124 178.7C124.7 178.7 125.2 178.1 125.2 177.5L125.2 175.5C125.3 174.9 124.7 174.3 124 174.3Z" />
		<path id="Layer" class="shp0" d="M118.7 174.6C118 174.6 117.5 175.2 117.5 175.8L117.5 179.6C117.5 180.3 118.1 180.8 118.7 180.8C119.4 180.8 119.9 180.2 119.9 179.6L119.9 175.8C120 175.1 119.4 174.6 118.7 174.6Z" />
		<path id="Layer" class="shp0" d="M140.4 174.3C139.7 174.3 139.2 174.9 139.2 175.5L139.2 176.7C139.2 177.4 139.8 177.9 140.4 177.9C141 177.9 141.6 177.3 141.6 176.7L141.6 175.5C141.6 174.9 141.1 174.3 140.4 174.3Z" />
		<path id="Layer" class="shp0" d="M113.9 174.3C113.2 174.3 112.7 174.9 112.7 175.5L112.7 177.9C112.7 178.6 113.3 179.1 113.9 179.1C114.6 179.1 115.1 178.5 115.1 177.9L115.1 175.5C115.1 174.9 114.6 174.3 113.9 174.3Z" />
		<path id="Layer" class="shp0" d="M129.6 174.3C128.9 174.3 128.4 174.9 128.4 175.5L128.4 179.5C128.4 180.2 129 180.7 129.6 180.7C130.3 180.7 130.8 180.1 130.8 179.5L130.8 175.5C130.8 174.9 130.3 174.3 129.6 174.3Z" />
	</g>
	<path id="Layer" fill-rule="evenodd" class="shp0" d="M150 29C150.7 30.3 151.1 31.7 151.1 33.2C151.1 37.9 147.3 41.6 142.7 41.6L112.1 41.6C107.4 41.6 103.7 37.8 103.7 33.2C103.7 28.8 107.3 25.1 111.7 24.9C111.6 24.3 111.5 23.6 111.5 23C111.5 16.6 116.7 11.5 123 11.5C126.8 11.5 130.3 13.3 132.4 16.4C133.7 15.7 135.1 15.3 136.6 15.3C140.1 15.3 143.1 17.3 144.6 20.2C143.2 12.6 135.7 11.1 135.7 11.1C135.7 11.1 139.2 9.6 141.6 9.6C147.9 9.6 153 14.7 153 21C153 24 151.8 26.8 150 29ZM147.1 21C147.1 22.6 146.8 24.2 146.1 25.6C146.6 25.9 147.1 26.2 147.6 26.5C147.8 26.7 148 26.8 148.2 27C149.6 25.4 150.5 23.3 150.5 21C150.5 16.4 147 12.6 142.6 12.1C145.4 14.1 147.2 17.3 147.1 21ZM148.6 33.1C148.6 31.9 148.2 30.7 147.5 29.7C147 28.9 146.2 28.3 145.4 27.9C145.1 27.7 144.7 27.6 144.4 27.5C144.3 27.5 144.1 27.4 144 27.4L142.7 27.1L143 25.8C143 25.6 143.1 25.3 143.1 25.1C143.2 24.8 143.2 24.5 143.2 24.2C143.2 20.6 140.3 17.7 136.7 17.7C135.3 17.7 133.9 18.1 132.8 19L131.6 19.9L130.9 18.6C129.4 15.6 126.3 13.8 123 13.8C118 13.8 114 17.9 114 22.8C114 23.7 114.1 24.6 114.4 25.5L114.9 27.1L112 27.1C108.7 27.1 106.1 29.8 106.1 33C106.1 36.3 108.8 38.9 112 38.9L142.6 38.9C145.8 38.9 148.4 36.3 148.6 33.1Z" />
	<path id="Layer" fill-rule="evenodd" class="shp0" d="M149.7 -108.6C150.8 -107.2 151.5 -105.4 151.5 -103.5C151.5 -98.8 147.7 -95.1 143.1 -95.1L112.5 -95.1C107.8 -95.1 104.1 -98.9 104.1 -103.5C104.1 -107.9 107.7 -111.6 112.1 -111.8C112 -112.4 111.9 -113.1 111.9 -113.7C111.9 -120.1 117.1 -125.2 123.4 -125.2C127.2 -125.2 130.7 -123.4 132.8 -120.3C134.1 -121 135.5 -121.4 137 -121.4C139 -121.4 140.9 -120.8 142.4 -119.6C143.2 -121.6 143.2 -124 142.3 -126L141.3 -128.3L143.7 -127.8C145.8 -127.3 147.8 -126.2 149.3 -124.7C151.4 -122.6 152.6 -119.7 152.6 -116.7C152.6 -113.8 151.5 -111 149.7 -108.6ZM144.3 -117.8C145.4 -116.4 146 -114.6 146 -112.6C146 -112.3 145.9 -111.9 145.9 -111.6C146.5 -111.3 147.1 -111 147.7 -110.6C149.3 -112.2 150.2 -114.4 150.2 -116.7C150.2 -119.1 149.3 -121.3 147.6 -123C146.9 -123.6 146.2 -124.2 145.4 -124.6C145.8 -122.3 145.3 -119.9 144.3 -117.8ZM148.9 -103.7C148.9 -105 148.5 -106.2 147.7 -107.2C147.2 -107.9 146.5 -108.5 145.7 -108.9C145.2 -109.1 144.8 -109.3 144.3 -109.4L143 -109.7L143.3 -111C143.4 -111.6 143.5 -112.1 143.5 -112.6C143.5 -113.7 143.2 -114.8 142.7 -115.7C142.3 -116.4 141.8 -117.1 141.1 -117.6C140 -118.6 138.5 -119.1 137 -119.1C135.6 -119.1 134.2 -118.7 133.1 -117.8L131.9 -116.9L131.2 -118.2C129.7 -121.2 126.6 -123 123.3 -123C118.3 -123 114.3 -118.9 114.3 -114C114.3 -113.1 114.4 -112.2 114.7 -111.3L115.2 -109.7L112.3 -109.7C109 -109.7 106.4 -107 106.4 -103.8C106.4 -100.5 109.1 -97.9 112.3 -97.9L142.9 -97.9C146.1 -97.9 148.8 -100.5 148.9 -103.7Z" />
	<path id="Layer" fill-rule="evenodd" class="shp0" d="M149.1 -244.3C149.3 -243.6 149.4 -242.9 149.4 -242.1C149.4 -237.4 145.6 -233.7 141 -233.7L110.4 -233.7C105.7 -233.7 102 -237.5 102 -242.1C102 -246.5 105.6 -250.2 110 -250.4C109.9 -251 109.8 -251.7 109.8 -252.3C109.8 -258.7 115 -263.8 121.3 -263.8C125.1 -263.8 128.6 -262 130.7 -258.9C132 -259.6 133.4 -260 134.9 -260C135 -260 135.1 -260 135.2 -260C137.1 -262.8 140.4 -264.6 144 -264.6C149.9 -264.6 154.7 -259.8 154.7 -253.9C154.7 -249.7 152.3 -246.2 149.1 -244.3ZM146.6 -243.3C146.4 -244.1 146 -244.9 145.5 -245.6C144.7 -246.7 143.5 -247.4 142.2 -247.7L140.9 -248L141.2 -249.3C141.3 -249.9 141.4 -250.4 141.4 -250.9C141.4 -253.9 139.3 -256.5 136.5 -257.2C136 -257.3 135.5 -257.4 134.9 -257.4C134.6 -257.4 134.2 -257.4 133.9 -257.3C132.9 -257.2 131.9 -256.7 131 -256.1L129.8 -255.2L129.1 -256.5C127.6 -259.5 124.5 -261.3 121.2 -261.3C116.2 -261.3 112.2 -257.2 112.2 -252.3C112.2 -251.4 112.3 -250.5 112.6 -249.6L113.1 -248L110.2 -248C106.9 -248 104.3 -245.3 104.3 -242.1C104.3 -238.8 107 -236.2 110.2 -236.2L140.8 -236.2C144.1 -236.2 146.7 -238.9 146.7 -242.1C146.7 -242.6 146.7 -243.1 146.6 -243.3ZM152.2 -253.9C152.2 -258.4 148.5 -262.1 144 -262.1C141.6 -262.1 139.5 -261 138 -259.4C141.4 -258.2 143.9 -254.9 143.9 -251C143.9 -250.7 143.8 -250.3 143.8 -250C145.5 -249.4 146.9 -248.2 147.9 -246.7C150.4 -248 152.2 -250.8 152.2 -253.9Z" />
	<g id="Layer">
		<path id="Layer" fill-rule="evenodd" class="shp0" d="M33.5 313C33.5 317.7 29.7 321.5 25 321.5C20.3 321.5 16.5 317.7 16.5 313C16.5 310.4 17.7 308 19.7 306.4L19.7 282C19.7 279.1 22.1 276.7 25 276.7C27.9 276.7 30.3 279.1 30.3 282L30.3 306.4C32.3 308 33.5 310.4 33.5 313ZM31.1 313C31.1 311.1 30.2 309.2 28.5 308.1L27.9 307.7L27.9 282C27.9 280.4 26.6 279.2 25.1 279.2C23.5 279.2 22.3 280.5 22.3 282L22.3 307.7L21.7 308.1C20.1 309.2 19.1 311 19.1 313C19.1 316.3 21.8 319 25.1 319C28.4 319 31 316.3 31.1 313Z" />
		<path id="Layer" class="shp0" d="M27.6 309.3L26.4 308.5L26.4 299.1L26.4 293.5L26.4 292C26.4 291.3 25.8 290.7 25.1 290.7C24.4 290.7 23.8 291.3 23.8 292L23.8 293.5L23.8 299.1L23.8 308.5L22.6 309.3C21.4 310.1 20.6 311.5 20.6 313C20.6 315.5 22.6 317.5 25.1 317.5C27.6 317.5 29.6 315.5 29.6 313C29.6 311.5 28.8 310.1 27.6 309.3Z" />
	</g>
	<g id="Layer">
		<path id="Layer" fill-rule="evenodd" class="shp0" d="M49 162.2C49 171.1 41.7 178.4 32.8 178.4C29.7 178.4 26.6 177.5 24 175.8L21.9 174.4L24.2 173.5C28.9 171.7 32.1 167.2 32.1 162.1C32.1 157 29 152.5 24.2 150.7L21.9 149.8L24 148.4C26.7 146.7 29.7 145.8 32.8 145.8C41.7 145.8 49 153.1 49 162.2ZM46.5 162C46.5 154.4 40.4 148.3 32.8 148.3C31 148.3 29.2 148.7 27.5 149.4C31.9 152 34.7 156.8 34.7 162C34.7 167.2 31.9 172 27.5 174.6C29.2 175.3 31 175.7 32.8 175.7C40.4 175.7 46.5 169.6 46.5 162Z" />
		<path id="Layer" fill-rule="evenodd" class="shp0" d="M21.9 164.7C22 165.1 21.8 165.6 21.4 165.9C21.2 166 21 166.1 20.7 166.1C20.5 166.1 20.3 166.1 20.1 166L17.9 164.9L15.7 166C15.3 166.2 14.8 166.2 14.4 165.9C14 165.6 13.8 165.2 13.9 164.7L14.3 162.3L12.5 160.6C12.2 160.3 12.1 159.8 12.2 159.3C12.3 158.8 12.7 158.5 13.2 158.4L15.6 158L16.7 155.8C16.9 155.4 17.3 155.1 17.8 155.1C18.3 155.1 18.7 155.4 18.9 155.8L20 158L22.5 158.3C23 158.4 23.4 158.7 23.5 159.2C23.7 159.7 23.5 160.2 23.2 160.5L21.4 162.2L21.9 164.7ZM19.6 160.5L19 160.4C18.6 160.3 18.3 160.1 18.1 159.7L17.8 159.2L17.5 159.7C17.4 160.1 17 160.3 16.6 160.4L16 160.5L16.4 160.9C16.7 161.2 16.9 161.6 16.8 162L16.7 162.6L17.2 162.3C17.4 162.2 17.6 162.2 17.8 162.2C18 162.2 18.2 162.2 18.4 162.3L18.9 162.6L18.8 162C18.8 161.6 18.9 161.2 19.2 160.9L19.6 160.5Z" />
		<path id="Layer" fill-rule="evenodd" class="shp0" d="M9.6 168.2C9.8 168.7 9.6 169.2 9.3 169.5L8.2 170.6L8.5 172.1C8.6 172.5 8.4 173 8 173.3C7.8 173.4 7.6 173.5 7.3 173.5C7.1 173.5 6.9 173.5 6.7 173.4L5.4 172.7L4.1 173.4C3.7 173.6 3.2 173.6 2.8 173.3C2.4 173 2.2 172.6 2.3 172.1L2.6 170.6L1.5 169.5C1.2 169.1 1.1 168.7 1.2 168.2C1.3 167.7 1.7 167.4 2.2 167.3L3.7 167.1L4.4 165.7C4.6 165.3 5 165 5.5 165C6 165 6.4 165.3 6.6 165.7L7.3 167.1L8.8 167.3C9.3 167.4 9.6 167.7 9.6 168.2ZM6 169.4C5.8 169.3 5.6 169.2 5.5 169C5.4 169.2 5.2 169.3 5 169.4C5.1 169.6 5.2 169.8 5.2 170C5.3 170 5.4 170 5.5 170C5.6 170 5.7 170 5.8 170C5.8 169.8 5.9 169.6 6 169.4Z" />
	</g>
	<path id="Layer" fill-rule="evenodd" class="shp0" d="M21.3 41.2C19.3 41.2 17.4 40.8 15.6 40.1L11.4 38.5L15.8 37.7C22 36.6 26.5 31.2 26.5 24.9C26.5 18.6 22 13.3 15.8 12.1L11.4 11.3L15.6 9.7C17.4 9 19.4 8.6 21.3 8.6C30.2 8.6 37.5 15.9 37.5 24.8C37.5 33.9 30.2 41.2 21.3 41.2ZM20.6 38.7C20.8 38.7 21 38.7 21.2 38.7C28.8 38.7 34.9 32.6 34.9 25C34.9 17.4 28.8 11.3 21.2 11.3C21 11.3 20.8 11.3 20.6 11.3C25.6 13.9 28.9 19.1 28.9 25C28.9 30.8 25.6 36 20.6 38.7Z" />
	<path id="Layer" fill-rule="evenodd" class="shp0" d="M21.7 -95.9C18.6 -95.9 15.6 -96.8 12.9 -98.5L10.8 -99.9L13.1 -100.8C17.9 -102.6 21 -107.1 21 -112.2C21 -117.3 17.8 -121.8 13.1 -123.6L10.8 -124.5L12.9 -125.9C15.5 -127.6 18.6 -128.5 21.7 -128.5C30.6 -128.5 37.9 -121.2 37.9 -112.3C37.9 -103.2 30.6 -95.9 21.7 -95.9ZM16.3 -99.5C18 -98.8 19.8 -98.4 21.6 -98.4C29.2 -98.4 35.3 -104.5 35.3 -112.1C35.3 -119.7 29.2 -125.8 21.6 -125.8C19.8 -125.8 18 -125.4 16.3 -124.7C20.7 -122.1 23.5 -117.3 23.5 -112.1C23.6 -106.9 20.7 -102.1 16.3 -99.5Z" />
	<path id="Layer" fill-rule="evenodd" class="shp0" d="M25.1 -233C16.2 -233 8.9 -240.3 8.9 -249.2C8.9 -258.1 16.2 -265.4 25.1 -265.4C34 -265.4 41.3 -258.1 41.3 -249.2C41.3 -240.2 34 -233 25.1 -233ZM25.1 -262.9C17.5 -262.9 11.4 -256.8 11.4 -249.2C11.4 -241.6 17.5 -235.5 25.1 -235.5C32.7 -235.5 38.8 -241.6 38.8 -249.2C38.8 -256.7 32.6 -262.9 25.1 -262.9Z" />
	<path id="Layer" fill-rule="evenodd" class="shp0" d="M-68.3 301.5C-68.3 305 -69.6 308.3 -72.1 310.8C-74.6 313.2 -77.8 314.5 -81.2 314.6C-84.7 314.6 -87.9 313.2 -90.3 310.8C-92.7 308.3 -94.1 305 -94.1 301.5C-94.1 298 -92.8 294.7 -90.3 292.2L-81.2 283.1L-72.1 292.2C-69.6 294.7 -68.3 298 -68.3 301.5ZM-70.8 301.5C-70.8 298.7 -71.9 296 -73.9 294L-81.2 286.7L-88.5 294C-90.5 296 -91.6 298.7 -91.6 301.5C-91.6 304.3 -90.5 307 -88.5 309C-86.6 311 -84 312.1 -81.2 312.1C-78.4 312 -75.8 310.9 -73.9 309C-71.9 307 -70.8 304.3 -70.8 301.5Z" />
	<g id="Layer">
		<path id="Layer" class="shp0" d="M-81.2 169C-85.18 169 -88.4 165.78 -88.4 161.8C-88.4 157.82 -85.18 154.6 -81.2 154.6C-77.22 154.6 -74 157.82 -74 161.8C-74 165.78 -77.22 169 -81.2 169Z" />
		<path id="Layer" fill-rule="evenodd" class="shp0" d="M-58.6 161.8C-58.6 162.4 -59.1 163 -59.8 163L-68.6 163C-68.8 165.6 -69.8 167.9 -71.4 169.8L-66.9 174.3C-66.4 174.8 -66.4 175.6 -66.9 176.1C-67.2 176.4 -67.5 176.5 -67.8 176.5C-68.1 176.5 -68.5 176.3 -68.7 176.1L-73.2 171.6C-75.1 173.1 -77.4 174.1 -80 174.4L-80 183.2C-80 183.8 -80.6 184.4 -81.2 184.4C-81.8 184.4 -82.4 183.9 -82.4 183.2L-82.4 174.4C-85 174.2 -87.3 173.2 -89.2 171.6L-93.7 176.1C-94 176.4 -94.3 176.5 -94.6 176.5C-94.9 176.5 -95.3 176.3 -95.5 176.1C-96 175.6 -96 174.8 -95.5 174.3L-91 169.8C-92.5 167.9 -93.5 165.6 -93.8 163L-102.6 163C-103.2 163 -103.8 162.5 -103.8 161.8C-103.8 161.2 -103.3 160.6 -102.6 160.6L-93.8 160.6C-93.6 158 -92.6 155.7 -91 153.8L-95.5 149.3C-96 148.8 -96 148 -95.5 147.5C-95 147 -94.2 147 -93.7 147.5L-89.2 152C-87.3 150.5 -85 149.5 -82.4 149.2L-82.4 140.4C-82.4 139.8 -81.8 139.2 -81.2 139.2C-80.6 139.2 -80 139.7 -80 140.4L-80 149.2C-77.4 149.4 -75.1 150.4 -73.2 152L-68.7 147.5C-68.2 147 -67.4 147 -66.9 147.5C-66.4 148 -66.4 148.8 -66.9 149.3L-71.4 153.8C-69.9 155.7 -68.9 158 -68.6 160.6L-59.8 160.6C-59.1 160.6 -58.5 161.1 -58.6 161.8ZM-71 161.8C-71 156.2 -75.6 151.6 -81.2 151.6C-86.8 151.6 -91.4 156.2 -91.4 161.8C-91.4 167.4 -86.8 172 -81.2 172C-75.5 172 -71 167.5 -71 161.8Z" />
	</g>
	<g id="Layer">
		<path id="Layer" class="shp0" d="M-96.3 39.2C-97 39.2 -97.5 39.8 -97.5 40.4L-97.5 48.4C-97.5 49.1 -96.9 49.6 -96.3 49.6C-95.7 49.6 -95.1 49 -95.1 48.4L-95.1 40.4C-95 39.8 -95.6 39.2 -96.3 39.2Z" />
		<path id="Layer" class="shp0" d="M-85.4 39.2C-86.1 39.2 -86.6 39.8 -86.6 40.4L-86.6 48.4C-86.6 49.1 -86 49.6 -85.4 49.6C-84.7 49.6 -84.2 49 -84.2 48.4L-84.2 40.4C-84.2 39.8 -84.8 39.2 -85.4 39.2Z" />
		<path id="Layer" class="shp0" d="M-74.6 39.2C-75.3 39.2 -75.8 39.8 -75.8 40.4L-75.8 42.4C-75.8 43.1 -75.2 43.6 -74.6 43.6C-74 43.6 -73.4 43 -73.4 42.4L-73.4 40.4C-73.4 39.8 -73.9 39.2 -74.6 39.2Z" />
		<path id="Layer" class="shp0" d="M-74.6 44.7C-75.3 44.7 -75.8 45.3 -75.8 46C-75.8 46.7 -75.2 47.2 -74.6 47.2C-74 47.2 -73.4 46.6 -73.4 46L-73.4 46C-73.4 45.2 -73.9 44.7 -74.6 44.7Z" />
		<path id="Layer" class="shp0" d="M-90.9 39.2C-91.6 39.2 -92.1 39.8 -92.1 40.4L-92.1 42.4C-92.1 43.1 -91.5 43.6 -90.9 43.6C-90.2 43.6 -89.7 43 -89.7 42.4L-89.7 40.4C-89.6 39.8 -90.2 39.2 -90.9 39.2Z" />
		<path id="Layer" class="shp0" d="M-90.9 44.7C-91.6 44.7 -92.1 45.3 -92.1 46C-92.1 46.7 -91.5 47.2 -90.9 47.2C-90.2 47.2 -89.7 46.6 -89.7 46L-89.7 46C-89.6 45.2 -90.2 44.7 -90.9 44.7Z" />
		<path id="Layer" class="shp0" d="M-69.2 39.2C-69.9 39.2 -70.4 39.8 -70.4 40.4L-70.4 44.4C-70.4 45.1 -69.8 45.6 -69.2 45.6C-68.6 45.6 -68 45 -68 44.4L-68 40.4C-68 39.8 -68.5 39.2 -69.2 39.2Z" />
		<path id="Layer" class="shp0" d="M-80 39.2C-80.7 39.2 -81.2 39.8 -81.2 40.4L-81.2 44.4C-81.2 45.1 -80.6 45.6 -80 45.6C-79.3 45.6 -78.8 45 -78.8 44.4L-78.8 40.4C-78.8 39.8 -79.3 39.2 -80 39.2Z" />
		<path id="Layer" fill-rule="evenodd" class="shp0" d="M-55 13.4C-55 14 -55.5 14.6 -56.2 14.6L-60.7 14.6C-60.9 15.8 -61.3 16.9 -62 17.8L-59.8 20C-59.3 20.5 -59.3 21.3 -59.8 21.8C-60.1 22.1 -60.4 22.2 -60.7 22.2C-61 22.2 -61.4 22 -61.6 21.8L-63.8 19.6C-64.2 19.8 -64.6 20.1 -65.1 20.3C-65.1 20.6 -65.1 20.8 -65.1 21.1C-61.9 22.3 -59.7 25.4 -59.7 28.9C-59.7 33.6 -63.5 37.3 -68.1 37.3L-98.7 37.3C-103.4 37.3 -107.1 33.5 -107.1 28.9C-107.1 24.5 -103.5 20.8 -99.1 20.6C-99.2 20 -99.3 19.3 -99.3 18.7C-99.3 12.3 -94.1 7.2 -87.8 7.2C-84 7.2 -80.5 9 -78.4 12.1C-77.6 11.7 -76.7 11.4 -75.8 11.2C-75.5 10.3 -75.1 9.5 -74.6 8.8L-76.8 6.6C-77.3 6.1 -77.3 5.3 -76.8 4.8C-76.3 4.3 -75.5 4.3 -75 4.8L-72.8 7C-71.9 6.4 -70.8 5.9 -69.6 5.7L-69.6 1.2C-69.6 0.6 -69 0 -68.4 0C-67.8 0 -67.2 0.5 -67.2 1.2L-67.2 5.7C-66 5.9 -64.9 6.3 -64 7L-61.8 4.8C-61.3 4.3 -60.5 4.3 -60 4.8C-59.5 5.3 -59.5 6.1 -60 6.6L-62.2 8.8C-61.6 9.7 -61.1 10.8 -60.9 12L-56.4 12C-55.7 12 -55 12.8 -55 13.4ZM-67 23.2L-68.3 22.9L-68 21.6C-68 21.4 -67.9 21.1 -67.9 20.9C-67.8 20.6 -67.8 20.3 -67.8 20C-67.8 19.5 -67.9 18.9 -68 18.4C-68.6 15.8 -70.9 13.9 -73.6 13.6C-73.8 13.6 -74 13.6 -74.2 13.6C-74.9 13.6 -75.5 13.7 -76.1 13.9C-76.8 14.1 -77.5 14.4 -78.1 14.9L-79.3 15.8L-80 14.5C-81.5 11.5 -84.6 9.7 -87.9 9.7C-92.9 9.7 -96.9 13.8 -96.9 18.7C-96.9 19.6 -96.8 20.5 -96.5 21.4L-96 23L-98.9 23C-102.2 23 -104.8 25.7 -104.8 28.9C-104.8 32.2 -102.1 34.8 -98.9 34.8L-68.3 34.8C-65 34.8 -62.4 32.1 -62.4 28.9C-62.4 26.2 -64.3 23.7 -67 23.2ZM-63.3 13.3C-63.3 10.4 -65.6 8.1 -68.5 8.1C-70.6 8.1 -72.4 9.3 -73.2 11.1C-69.5 11.6 -66.6 14.2 -65.6 17.6C-64.2 16.7 -63.2 15.1 -63.3 13.3Z" />
	</g>
	<path id="Layer" fill-rule="evenodd" class="shp0" d="M-55 -117.4C-55 -116.8 -55.5 -116.2 -56.2 -116.2L-60.7 -116.2C-60.9 -115 -61.3 -113.9 -62 -113L-59.8 -110.8C-59.3 -110.3 -59.3 -109.5 -59.8 -109C-60.1 -108.7 -60.4 -108.6 -60.7 -108.6C-61 -108.6 -61.4 -108.8 -61.6 -109L-63.8 -111.2C-64.2 -111 -64.6 -110.7 -65.1 -110.5C-65.1 -110.2 -65.1 -110 -65.1 -109.7C-61.9 -108.5 -59.7 -105.4 -59.7 -101.9C-59.7 -97.2 -63.5 -93.5 -68.1 -93.5L-98.7 -93.5C-103.4 -93.5 -107.1 -97.3 -107.1 -101.9C-107.1 -106.3 -103.5 -110 -99.1 -110.2C-99.2 -110.8 -99.3 -111.5 -99.3 -112.1C-99.3 -118.5 -94.1 -123.6 -87.8 -123.6C-84 -123.6 -80.5 -121.8 -78.4 -118.7C-77.6 -119.1 -76.7 -119.4 -75.8 -119.6C-75.5 -120.5 -75.1 -121.3 -74.6 -122L-76.8 -124.2C-77.3 -124.7 -77.3 -125.5 -76.8 -126C-76.3 -126.5 -75.5 -126.5 -75 -126L-72.8 -123.8C-71.9 -124.4 -70.8 -124.9 -69.6 -125.1L-69.6 -129.6C-69.6 -130.2 -69 -130.8 -68.4 -130.8C-67.8 -130.8 -67.2 -130.3 -67.2 -129.6L-67.2 -125.1C-66 -124.9 -64.9 -124.5 -64 -123.8L-61.8 -126C-61.3 -126.5 -60.5 -126.5 -60 -126C-59.5 -125.5 -59.5 -124.7 -60 -124.2L-62.2 -122C-61.6 -121.1 -61.1 -120 -60.9 -118.8L-56.4 -118.8C-55.7 -118.8 -55.1 -118.2 -55 -117.4ZM-67 -107.6L-68.3 -107.9L-68 -109.2C-68 -109.4 -67.9 -109.7 -67.9 -109.9C-67.8 -110.2 -67.8 -110.5 -67.8 -110.8C-67.8 -111.3 -67.9 -111.9 -68 -112.4C-68.6 -115 -70.9 -116.9 -73.6 -117.2C-73.8 -117.2 -74 -117.2 -74.2 -117.2C-74.9 -117.2 -75.5 -117.1 -76.1 -116.9C-76.8 -116.7 -77.5 -116.4 -78.1 -115.9L-79.3 -115L-80 -116.3C-81.5 -119.3 -84.6 -121.1 -87.9 -121.1C-92.9 -121.1 -96.9 -117 -96.9 -112.1C-96.9 -111.2 -96.8 -110.3 -96.5 -109.4L-96 -107.8L-98.9 -107.8C-102.2 -107.8 -104.8 -105.1 -104.8 -101.9C-104.8 -98.6 -102.1 -96 -98.9 -96L-68.3 -96C-65 -96 -62.4 -98.7 -62.4 -101.9C-62.4 -104.6 -64.3 -107.1 -67 -107.6ZM-63.3 -117.5C-63.3 -120.4 -65.6 -122.7 -68.5 -122.7C-70.6 -122.7 -72.4 -121.5 -73.2 -119.7C-69.5 -119.2 -66.6 -116.6 -65.6 -113.2C-64.2 -114.1 -63.2 -115.7 -63.3 -117.5Z" />
	<path id="Layer" fill-rule="evenodd" class="shp0" d="M-58.6 -249.2C-58.6 -248.6 -59.1 -248 -59.8 -248L-68.6 -248C-68.8 -245.4 -69.8 -243.1 -71.4 -241.2L-66.9 -236.7C-66.4 -236.2 -66.4 -235.4 -66.9 -234.9C-67.2 -234.6 -67.5 -234.5 -67.8 -234.5C-68.1 -234.5 -68.5 -234.7 -68.7 -234.9L-73.2 -239.4C-75.1 -237.9 -77.4 -236.9 -80 -236.6L-80 -227.8C-80 -227.2 -80.6 -226.6 -81.2 -226.6C-81.8 -226.6 -82.4 -227.1 -82.4 -227.8L-82.4 -236.6C-85 -236.8 -87.3 -237.8 -89.2 -239.4L-93.7 -234.9C-94 -234.6 -94.3 -234.5 -94.6 -234.5C-94.9 -234.5 -95.3 -234.7 -95.5 -234.9C-96 -235.4 -96 -236.2 -95.5 -236.7L-91 -241.2C-92.5 -243.1 -93.5 -245.4 -93.8 -248L-102.6 -248C-103.2 -248 -103.8 -248.5 -103.8 -249.2C-103.8 -249.8 -103.3 -250.4 -102.6 -250.4L-93.8 -250.4C-93.6 -253 -92.6 -255.3 -91 -257.2L-95.5 -261.7C-96 -262.2 -96 -263 -95.5 -263.5C-95 -264 -94.2 -264 -93.7 -263.5L-89.2 -259C-87.3 -260.5 -85 -261.5 -82.4 -261.8L-82.4 -270.6C-82.4 -271.2 -81.8 -271.8 -81.2 -271.8C-80.6 -271.8 -80 -271.3 -80 -270.6L-80 -261.8C-77.4 -261.6 -75.1 -260.6 -73.2 -259L-68.7 -263.5C-68.2 -264 -67.4 -264 -66.9 -263.5C-66.4 -263 -66.4 -262.2 -66.9 -261.7L-71.4 -257.2C-69.9 -255.3 -68.9 -253 -68.6 -250.4L-59.8 -250.4C-59.1 -250.4 -58.5 -249.9 -58.6 -249.2ZM-71 -249.2C-71 -254.8 -75.6 -259.4 -81.2 -259.4C-86.8 -259.4 -91.4 -254.8 -91.4 -249.2C-91.4 -243.6 -86.8 -239 -81.2 -239C-75.5 -239 -71 -243.6 -71 -249.2Z" />
</svg>